:SAMPLES-PER-SECOND 30
:FULLY-SPECIFIED
:DEGREES
25
root  34.69977792 36.49971729 -14.97491251 8.174768448 -5.649618626 3.752157927
lowerback  -7.55712986 -1.191589952 -1.017669559
upperback  -4.18874979 -1.092129946 -2.912169933
thorax  -0.125590995 -0.38548401 -2.509799957
lowerneck  -4.193669796 -15.02999973 -12.28009987
upperneck  11.75279999 -20.58259773 11.11569977
head  6.690209866 -9.836050034 3.588239908
lclavicle  0 -4.497500157e-015 -2.743230041e-014
lhumerus  -49.26720047 27.5230999 64.90139771
lradius  5.228657756e-007 -6.507048965e-006 30.49302101
lwrist  4.824992743e-007 -3.790274832e-007 -27.32019806
lhand  -4.419251534e-031 -36.96220016 -10.70400047
lfingers  90 7.125020027 -90
lthumb  94.85142675 -25.53707256 101.1382397
rclavicle  0 -4.497500157e-015 -2.743230041e-014
rhumerus  -59.52659988 -37.00450134 -50.14519882
rradius  -5.16745672e-007 2.214343908e-008 36.83000183
rwrist  -0.0001064338358 0.02085571177 -147.9570007
rhand  -3.534725302e-031 -2.586210012 -7.559510231
rfingers  -90 -7.125020027 -90
rthumb  -86.52009333 -8.094882938 -66.64269016
rfemur  -12.62107754 16.50534821 13.14879894
rtibia  -1.602351785 -1.11668992 21.63594818
rfoot  -0.07431034744 -22.20786858 -36.1632309
rtoes  4.075155514 19.59709229 -101.9922835
lfemur  -8.108963013 -17.13894844 -20.29714584
ltibia  2.351306677 -1.287633538 15.09834957
lfoot  0.9685608149 -23.0360508 38.07173538
ltoes  -8.738665583 -18.06061251 -116.3726366
26
root  34.69957967 36.49927575 -14.97598333 8.149943352 -5.634615898 3.757381916
lowerback  -7.811480522 -1.183440089 -1.018710017
upperback  -4.020199776 -1.079370022 -2.924740076
thorax  0.1891299933 -0.3826769888 -2.526870012
lowerneck  -4.305369854 -15.11240005 -12.25619984
upperneck  11.57559967 -20.69140053 11.18540001
head  6.670460224 -9.885560036 3.586220026
lclavicle  0 -4.497500157e-015 -2.743230041e-014
lhumerus  -48.93849945 27.61380005 65.06819916
lradius  5.228657756e-007 -6.507048965e-006 30.48130798
lwrist  4.824992743e-007 -3.790274832e-007 -27.27339935
lhand  -0 -36.95000076 -10.71609974
lfingers  90 7.125020027 -90
lthumb  94.84828971 -25.54945248 101.1262778
rclavicle  0 -4.497500157e-015 -2.743230041e-014
rhumerus  -59.07710266 -36.81769943 -50.72959518
rradius  -5.16745672e-007 2.214343908e-008 37.3022995
rwrist  -0.0001064338358 0.02095952071 -148.6759949
rhand  -1.767346803e-031 -2.574810028 -7.73443985
rfingers  -90 -7.125020027 -90
rthumb  -86.58805403 -7.934849772 -66.64129338
rfemur  -12.57810783 16.52121162 13.15151596
rtibia  -1.60362041 -1.10743928 21.61595726
rfoot  -0.0633906126 -22.17897415 -36.18059158
rtoes  4.052459762 19.60162071 -101.924624
lfemur  -8.086336136 -17.15532684 -20.31594658
ltibia  2.354451418 -1.327447891 15.10848045
lfoot  0.9409717321 -22.95985222 38.00119781
ltoes  -8.717515768 -18.07056693 -116.3044346
27
root  34.70007829 36.49968425 -14.97707067 8.129743576 -5.635715008 3.76066041
lowerback  -7.990409374 -1.168309927 -1.006569982
upperback  -3.896359921 -1.058150053 -2.949199915
thorax  0.4157730043 -0.3747070134 -2.561460018
lowerneck  -4.353769779 -15.18220043 -12.26350021
upperneck  11.39519978 -20.78910255 11.29209995
head  6.645390034 -9.930439949 3.605799913
lclavicle  0 -4.497500157e-015 -2.743230041e-014
lhumerus  -48.70600128 27.69630051 65.16840363
lradius  5.228657756e-007 -6.507048965e-006 30.49040031
lwrist  4.824992743e-007 -3.790274832e-007 -27.28470039
lhand  -4.418578408e-031 -36.95059967 -10.63599968
lfingers  90 7.125020027 -90
lthumb  94.83143233 -25.4707081 101.1195582
rclavicle  0 -4.497500157e-015 -2.743230041e-014
rhumerus  -58.64459991 -36.35179901 -51.50049973
rradius  -5.16745672e-007 2.214343908e-008 37.92789841
rwrist  -0.0001064338358 0.02106293291 -149.901001
rhand  -1.767255011e-031 -2.507760048 -7.639910221
rfingers  -90 -7.125020027 -90
rthumb  -86.5378806 -8.025251906 -66.57076452
rfemur  -12.5351038 16.5360527 13.15612316
rtibia  -1.604331374 -1.126979828 21.57880974
rfoot  -0.05427045003 -22.20311546 -36.20080185
rtoes  4.050399341 19.60203051 -101.9184823
lfemur  -8.101716042 -17.24895477 -20.31916809
ltibia  2.330886126 -1.386129737 15.16967583
lfoot  0.9321305752 -22.87123489 38.01102066
ltoes  -8.712032533 -18.07314272 -116.2867587
28
root  34.70098841 36.50068749 -14.9778291 8.11974144 -5.646734238 3.76287365
lowerback  -7.974269867 -1.159909964 -0.9876066446
upperback  -3.900470018 -1.047719955 -2.969799995
thorax  0.4021979868 -0.3710640371 -2.592319965
lowerneck  -4.229070187 -15.23019981 -12.30620003
upperneck  11.2173996 -20.86219978 11.37660027
head  6.590660095 -9.972459793 3.640350103
lclavicle  0 -4.497500157e-015 -2.743230041e-014
lhumerus  -48.66490173 27.66990089 65.21630096
lradius  5.228657756e-007 -6.507048965e-006 30.50239944
lwrist  4.824992743e-007 -3.790274832e-007 -27.23940086
lhand  -4.420691827e-031 -36.98699951 -10.59319973
lfingers  90 7.125020027 -90
lthumb  94.83928472 -25.42742386 101.1545138
rclavicle  0 -4.497500157e-015 -2.743230041e-014
rhumerus  -58.37590408 -35.65639877 -52.25589752
rradius  -5.16745672e-007 2.214343908e-008 38.72900009
rwrist  -0.0001064338358 0.02116595581 -150.8379974
rhand  -1.767014456e-031 -2.322849989 -7.412879944
rfingers  -90 -7.125020027 -90
rthumb  -86.41200974 -8.243015807 -66.37767088
rfemur  -12.51562023 16.53265762 13.15649509
rtibia  -1.608536243 -1.151153088 21.55442429
rfoot  -0.04614807293 -22.23392868 -36.19697189
rtoes  4.076469224 19.59682935 -101.9962003
lfemur  -8.118432045 -17.25655556 -20.30962372
ltibia  2.31799078 -1.38367641 15.20640659
lfoot  0.9617381096 -22.90267944 38.06516266
ltoes  -8.685216531 -18.08571043 -116.2003489
